<svg id="Capa_1" enable-background="new 0 0 512 512" height="512" viewBox="0 0 512 512" width="512" xmlns="http://www.w3.org/2000/svg"><g><path d="m484.044 63.999h-456.088c-15.44 0-27.956 12.516-27.956 27.956v256.488l211.819 28.444 300.181-28.444v-256.488c0-15.44-12.516-27.956-27.956-27.956z" fill="#665e66"/><path d="m28.445 92.443h-.001v256h455.112v-256z" fill="#f1f1f4"/><path d="m483.556 92.443h-41.207v159.594c0 41.864-33.938 75.802-75.802 75.802h-338.102v20.604l455.111 22.325z" fill="#dfdde2"/><path d="m199.405 257.694 16.711-4.178 6.691-1.673c3.377-.844 6.265-2.75 8.345-5.307l24.848 16.566 24.84-16.56c2.08 2.555 4.966 4.458 8.34 5.302l6.701 1.675 16.701 4.175c5.791 1.448 10.794 4.606 14.526 8.855v-92.545c0-13.628-11.048-24.675-24.675-24.675h-8.109c1.344 4.446 1.933 9.21 1.619 14.135l-.695 10.891-1.593 24.97c-1.268 19.868-17.752 35.334-37.66 35.334-19.908 0-36.392-15.466-37.66-35.334l-1.592-24.959-.696-10.902c-.314-4.925.274-9.689 1.619-14.135h-8.097c-13.628 0-24.675 11.048-24.675 24.675v92.531c3.728-4.241 8.727-7.395 14.511-8.841z" fill="#9d6b6b"/><path d="m317.093 487.215-117.865-10.772 32.992-82.245 52.026 11.134z" fill="#afaab4"/><path d="m340.255 504.888h-168.51c-.596 0-1.078-.483-1.078-1.078v-12.115c0-8.423 6.828-15.251 15.251-15.251h140.166c8.423 0 15.251 6.828 15.251 15.251v12.115c-.002.595-.485 1.078-1.08 1.078z" fill="#c6c1c8"/><path d="m295.882 253.519-6.701-1.675c-3.374-.844-6.261-2.747-8.34-5.302l-24.841 2.931-24.848-2.937c-2.08 2.557-4.968 4.463-8.345 5.307l-6.691 1.673 39.884 74.324z" fill="#f1f1f4"/><path d="m453.857 220.437h-82.838c-.688 0-1.246-.558-1.246-1.246v-97.06c0-.688.558-1.246 1.246-1.246h82.838c.688 0 1.246.558 1.246 1.246v97.06c0 .688-.558 1.246-1.246 1.246z" fill="#b7e445"/><path d="m442.348 220.437h11.509c.688 0 1.246-.558 1.246-1.246v-97.06c0-.688-.558-1.246-1.246-1.246h-11.509z" fill="#aad540"/><path d="m440.881 220.437h-56.887l9.724-29.173c2.686-8.057 10.226-13.492 18.719-13.492 8.493 0 16.033 5.435 18.719 13.492z" fill="#544f57"/><circle cx="412.438" cy="163.55" fill="#665e66" r="14.222"/><path d="m279.259 92.442h-46.517c-10.718 0-19.406-8.689-19.406-19.406v-21.212l85.33 12.175v9.037c-.001 10.718-8.69 19.406-19.407 19.406z" fill="#5ea5ec"/><path d="m298.665 63.999h-85.33c-15.709 0-28.443-12.734-28.443-28.443 0-15.709 12.734-28.443 28.443-28.443h85.33c15.709 0 28.443 12.734 28.443 28.443 0 15.708-12.734 28.443-28.443 28.443z" fill="#75cef9"/><g><path d="m256 339.366c-4.267 0-7.726-3.459-7.726-7.726v-85.103c0-4.267 3.459-7.726 7.726-7.726s7.726 3.459 7.726 7.726v85.103c0 4.267-3.459 7.726-7.726 7.726z" fill="#e7a561"/></g><g><path d="m298.665 43.282h-56.886c-4.267 0-7.726-3.459-7.726-7.726s3.459-7.726 7.726-7.726h56.886c4.268 0 7.726 3.459 7.726 7.726s-3.459 7.726-7.726 7.726z" fill="#5ea5ec"/></g><circle cx="213.335" cy="35.556" fill="#f1f1f4" r="7.726"/><path d="m312.582 257.694-16.701-4.175-39.881 66.47-39.883-66.472-16.711 4.178c-12.712 3.178-21.631 14.6-21.631 27.704v63.034h156.438v-63.034c0-13.104-8.918-24.527-21.631-27.705z" fill="#75cef9"/><path d="m334.213 327.84h-156.438v20.592l156.438 20.729z" fill="#6bbef6"/><g><path d="m213.335 365.239c-4.267 0-7.726-3.459-7.726-7.726v-51.746c0-4.267 3.459-7.726 7.726-7.726s7.726 3.459 7.726 7.726v51.746c0 4.267-3.459 7.726-7.726 7.726z" fill="#6bbef6"/></g><path d="m205.609 352.12 15.452 2.048v-26.328h-15.452z" fill="#5ea5ec"/><g><path d="m298.665 363.278c-4.268 0-7.726-3.459-7.726-7.726v-49.785c0-4.267 3.459-7.726 7.726-7.726s7.726 3.459 7.726 7.726v49.785c0 4.267-3.459 7.726-7.726 7.726z" fill="#6bbef6"/></g><path d="m290.939 327.84v27.712c0 4.267 3.459 7.726 7.726 7.726s7.726-3.459 7.726-7.726v-27.712z" fill="#5ea5ec"/><g><path d="m0 348.443v28.933c0 15.44 12.516 27.956 27.956 27.956h456.087c15.44 0 27.956-12.516 27.956-27.956v-28.933z" fill="#c6c1c8"/></g><g><path d="m284.445 384.614h-56.889c-4.267 0-7.726-3.459-7.726-7.726s3.459-7.726 7.726-7.726h56.889c4.268 0 7.726 3.459 7.726 7.726s-3.459 7.726-7.726 7.726z" fill="#afaab4"/></g><path d="m242.478 150.029c7.468 7.468 19.576 7.468 27.044 0 .386-.387 1.013-.387 1.4 0l24.326 24.326.695-10.891c1.472-23.064-16.838-42.578-39.948-42.578-23.11 0-41.42 19.515-39.948 42.578l.696 10.902 24.338-24.338c.384-.386 1.011-.386 1.397.001z" fill="#f4dd45"/><path d="m270.921 150.029c-.387-.387-1.013-.387-1.4 0-7.468 7.468-19.576 7.468-27.044 0-.387-.387-1.013-.387-1.4 0l-24.338 24.338 1.592 24.959c1.268 19.868 17.752 35.334 37.66 35.334 19.908 0 36.392-15.466 37.66-35.334l1.593-24.97z" fill="#ffece4"/><path d="m280.84 246.542c-2.214-2.72-3.514-6.178-3.514-9.881v-8.609c-6.082 4.174-13.438 6.606-21.333 6.606-7.894 0-15.25-2.432-21.332-6.606v8.609c0 3.7-1.298 7.156-3.509 9.875l21.646 14.43c1.939 1.293 4.465 1.293 6.405 0z" fill="#ffddce"/><g><path d="m253.396 206.782h-.958c-4.142 0-7.5-3.358-7.5-7.5 0-4.012 3.149-7.288 7.111-7.49v-6.731c0-4.142 3.358-7.5 7.5-7.5s7.5 3.358 7.5 7.5v8.068c.001 7.528-6.125 13.653-13.653 13.653z" fill="#ffddce"/></g></g></svg>